<?xml version="1.0" encoding="utf-8"?>
<svg version="1.0" xmlns="http://www.w3.org/2000/svg" width="950.000000pt" height="1280.000000pt" viewBox="0 0 950.000000 1280.000000" preserveAspectRatio="xMidYMid meet">
  <g transform="matrix(0.1, 0, 0, -0.1, 1199.09021, 775.333801)" fill="#000000" stroke="none">
    <g>
      <path d="M -6551 -228.91 C -6491 -83.907 -6380 229.094 -6393 203.094 C -6527 -60.907 -6729 -585.91 -6789 -825.93 C -6872 -1160.9 -6880 -1489.9 -6809 -1763.9 C -6770 -1913.9 -6740 -1988.9 -6589 -2298.9 C -6383 -2725.9 -6341 -2850.9 -6332 -3069.9 C -6324 -3258.9 -6353 -3392.9 -6445 -3583.9 C -6528 -3757.9 -6643 -3914.9 -6920 -4229 C -7227 -4579 -7162 -4551.9 -6893 -4244 C -6613 -3923.9 -6515 -3791.9 -6426 -3613.9 C -6325 -3409.9 -6294 -3277.9 -6302 -3073.9 C -6311 -2840.9 -6352 -2716.9 -6579 -2248.9 C -6710 -1978.9 -6764 -1842.9 -6792 -1708.9 C -6881 -1294.9 -6809 -850.93 -6551 -228.91 Z" style="transform-origin: -6712.35px -2139.32px;" transform="matrix(0.965926, 0.258819, -0.258819, 0.965926, -0.000074, -0.000052)"/>
    </g>
  </g>
</svg>