<svg xmlns="http://www.w3.org/2000/svg" width="150" height="100" viewBox="0 0 150 100">
  <path
    d="M136.221,27.244c2.638-11.053-2.09-24.443-2.09-24.443s-10.62,4.008-13.2,7.827C120.282,8.1,118.6,2.5,118.6,2.5s-1.687,5.6-2.326,8.128C113.68,6.809,103.059,2.8,103.059,2.8s-5.4,13.572-2.09,24.443c1.2,3.947,8.523,12.351,13.345,20.451,1.73,20.64-.585,27.683-2.127,32.421v21.313c0,4.535,3.892,7.814,4.243,8.231l1.987,25.788.042-.535.041.535,1.987-25.788c.356-.417,4.673-3.7,4.673-8.231V80.467c0-.119-.005-.232-.009-.351h.009c-1.532-4.709-3.824-11.708-2.155-32.053,4.842-7.868,12.083-16.07,13.216-20.819Z" />
</svg>